<mxfile host="app.diagrams.net" modified="2020-10-28T12:35:04.144Z" agent="5.0 (Windows)" etag="1fJF4sg1WVlnBKCPDHl3" version="13.8.5" type="github">
  <diagram id="_ANbzN1M4MJxJPfVMH9j" name="Page-1">
    <mxGraphModel dx="1135" dy="1262" grid="1" gridSize="10" guides="1" tooltips="1" connect="1" arrows="1" fold="1" page="1" pageScale="1" pageWidth="1100" pageHeight="850" math="0" shadow="0">
      <root>
        <mxCell id="0" />
        <mxCell id="1" parent="0" />
        <mxCell id="hwQlgyIUElPGhax0S_aQ-19" style="rounded=0;orthogonalLoop=1;jettySize=auto;html=1;strokeWidth=1;" parent="1" edge="1" source="hwQlgyIUElPGhax0S_aQ-1">
          <mxGeometry relative="1" as="geometry">
            <mxPoint x="320" y="120" as="targetPoint" />
            <mxPoint x="232.8472109876243" y="224.67194826993784" as="sourcePoint" />
          </mxGeometry>
        </mxCell>
        <mxCell id="hwQlgyIUElPGhax0S_aQ-20" style="edgeStyle=none;rounded=0;orthogonalLoop=1;jettySize=auto;html=1;strokeWidth=1;" parent="1" source="hwQlgyIUElPGhax0S_aQ-1" edge="1">
          <mxGeometry relative="1" as="geometry">
            <mxPoint x="320" y="320" as="targetPoint" />
          </mxGeometry>
        </mxCell>
        <mxCell id="hwQlgyIUElPGhax0S_aQ-1" value="" style="ellipse;whiteSpace=wrap;html=1;aspect=fixed;" parent="1" vertex="1">
          <mxGeometry x="200" y="200" width="40" height="40" as="geometry" />
        </mxCell>
        <mxCell id="hwQlgyIUElPGhax0S_aQ-23" style="edgeStyle=none;rounded=0;orthogonalLoop=1;jettySize=auto;html=1;strokeWidth=1;" parent="1" source="hwQlgyIUElPGhax0S_aQ-2" edge="1">
          <mxGeometry relative="1" as="geometry">
            <mxPoint x="520" y="320.0000000000001" as="targetPoint" />
          </mxGeometry>
        </mxCell>
        <mxCell id="hwQlgyIUElPGhax0S_aQ-2" value="" style="ellipse;whiteSpace=wrap;html=1;aspect=fixed;" parent="1" vertex="1">
          <mxGeometry x="400" y="300" width="40" height="40" as="geometry" />
        </mxCell>
        <mxCell id="hwQlgyIUElPGhax0S_aQ-24" style="edgeStyle=none;rounded=0;orthogonalLoop=1;jettySize=auto;html=1;strokeWidth=1;" parent="1" source="hwQlgyIUElPGhax0S_aQ-3" edge="1">
          <mxGeometry relative="1" as="geometry">
            <mxPoint x="520" y="120" as="targetPoint" />
          </mxGeometry>
        </mxCell>
        <mxCell id="hwQlgyIUElPGhax0S_aQ-3" value="" style="ellipse;whiteSpace=wrap;html=1;aspect=fixed;" parent="1" vertex="1">
          <mxGeometry x="400" y="100" width="40" height="40" as="geometry" />
        </mxCell>
        <mxCell id="hwQlgyIUElPGhax0S_aQ-4" value="" style="endArrow=none;html=1;strokeWidth=3;" parent="1" edge="1">
          <mxGeometry width="50" height="50" relative="1" as="geometry">
            <mxPoint x="320" y="140" as="sourcePoint" />
            <mxPoint x="320" y="100" as="targetPoint" />
          </mxGeometry>
        </mxCell>
        <mxCell id="hwQlgyIUElPGhax0S_aQ-5" value="" style="endArrow=none;html=1;strokeWidth=3;" parent="1" edge="1">
          <mxGeometry width="50" height="50" relative="1" as="geometry">
            <mxPoint x="320" y="340" as="sourcePoint" />
            <mxPoint x="320" y="300" as="targetPoint" />
          </mxGeometry>
        </mxCell>
        <mxCell id="hwQlgyIUElPGhax0S_aQ-6" value="" style="endArrow=none;html=1;strokeWidth=3;" parent="1" edge="1">
          <mxGeometry width="50" height="50" relative="1" as="geometry">
            <mxPoint x="120" y="240" as="sourcePoint" />
            <mxPoint x="120" y="200" as="targetPoint" />
          </mxGeometry>
        </mxCell>
        <mxCell id="hwQlgyIUElPGhax0S_aQ-22" style="edgeStyle=none;rounded=0;orthogonalLoop=1;jettySize=auto;html=1;strokeWidth=1;" parent="1" source="hwQlgyIUElPGhax0S_aQ-7" edge="1">
          <mxGeometry relative="1" as="geometry">
            <mxPoint x="319.9999999999999" y="320.0000000000001" as="targetPoint" />
          </mxGeometry>
        </mxCell>
        <mxCell id="hwQlgyIUElPGhax0S_aQ-7" value="" style="ellipse;whiteSpace=wrap;html=1;aspect=fixed;" parent="1" vertex="1">
          <mxGeometry x="400" y="380" width="40" height="40" as="geometry" />
        </mxCell>
        <mxCell id="hwQlgyIUElPGhax0S_aQ-21" style="edgeStyle=none;rounded=0;orthogonalLoop=1;jettySize=auto;html=1;strokeWidth=1;" parent="1" source="hwQlgyIUElPGhax0S_aQ-8" edge="1">
          <mxGeometry relative="1" as="geometry">
            <mxPoint x="319.9999999999999" y="120" as="targetPoint" />
          </mxGeometry>
        </mxCell>
        <mxCell id="hwQlgyIUElPGhax0S_aQ-8" value="" style="ellipse;whiteSpace=wrap;html=1;aspect=fixed;" parent="1" vertex="1">
          <mxGeometry x="400" y="180" width="40" height="40" as="geometry" />
        </mxCell>
        <mxCell id="hwQlgyIUElPGhax0S_aQ-9" value="" style="endArrow=none;html=1;strokeWidth=3;" parent="1" edge="1">
          <mxGeometry width="50" height="50" relative="1" as="geometry">
            <mxPoint x="520" y="140" as="sourcePoint" />
            <mxPoint x="520" y="100" as="targetPoint" />
          </mxGeometry>
        </mxCell>
        <mxCell id="hwQlgyIUElPGhax0S_aQ-10" value="" style="endArrow=none;html=1;strokeWidth=3;" parent="1" edge="1">
          <mxGeometry width="50" height="50" relative="1" as="geometry">
            <mxPoint x="520" y="340" as="sourcePoint" />
            <mxPoint x="520" y="300" as="targetPoint" />
          </mxGeometry>
        </mxCell>
        <mxCell id="hwQlgyIUElPGhax0S_aQ-25" style="edgeStyle=none;rounded=0;orthogonalLoop=1;jettySize=auto;html=1;strokeWidth=1;" parent="1" source="hwQlgyIUElPGhax0S_aQ-11" edge="1">
          <mxGeometry relative="1" as="geometry">
            <mxPoint x="720" y="220" as="targetPoint" />
          </mxGeometry>
        </mxCell>
        <mxCell id="hwQlgyIUElPGhax0S_aQ-11" value="" style="ellipse;whiteSpace=wrap;html=1;aspect=fixed;" parent="1" vertex="1">
          <mxGeometry x="600" y="200" width="40" height="40" as="geometry" />
        </mxCell>
        <mxCell id="hwQlgyIUElPGhax0S_aQ-26" style="edgeStyle=none;rounded=0;orthogonalLoop=1;jettySize=auto;html=1;strokeWidth=1;" parent="1" source="hwQlgyIUElPGhax0S_aQ-12" edge="1">
          <mxGeometry relative="1" as="geometry">
            <mxPoint x="920" y="220" as="targetPoint" />
          </mxGeometry>
        </mxCell>
        <mxCell id="hwQlgyIUElPGhax0S_aQ-12" value="" style="ellipse;whiteSpace=wrap;html=1;aspect=fixed;" parent="1" vertex="1">
          <mxGeometry x="800" y="200" width="40" height="40" as="geometry" />
        </mxCell>
        <mxCell id="hwQlgyIUElPGhax0S_aQ-13" value="" style="endArrow=none;html=1;strokeWidth=3;" parent="1" edge="1">
          <mxGeometry width="50" height="50" relative="1" as="geometry">
            <mxPoint x="720" y="240" as="sourcePoint" />
            <mxPoint x="720" y="200" as="targetPoint" />
          </mxGeometry>
        </mxCell>
        <mxCell id="hwQlgyIUElPGhax0S_aQ-27" style="edgeStyle=none;rounded=0;orthogonalLoop=1;jettySize=auto;html=1;strokeWidth=1;" parent="1" source="hwQlgyIUElPGhax0S_aQ-14" edge="1">
          <mxGeometry relative="1" as="geometry">
            <mxPoint x="720" y="220" as="targetPoint" />
          </mxGeometry>
        </mxCell>
        <mxCell id="hwQlgyIUElPGhax0S_aQ-14" value="" style="ellipse;whiteSpace=wrap;html=1;aspect=fixed;" parent="1" vertex="1">
          <mxGeometry x="900" y="300" width="40" height="40" as="geometry" />
        </mxCell>
        <mxCell id="hwQlgyIUElPGhax0S_aQ-15" value="" style="endArrow=none;html=1;strokeWidth=3;" parent="1" edge="1">
          <mxGeometry width="50" height="50" relative="1" as="geometry">
            <mxPoint x="920" y="240" as="sourcePoint" />
            <mxPoint x="920" y="200" as="targetPoint" />
          </mxGeometry>
        </mxCell>
        <mxCell id="hwQlgyIUElPGhax0S_aQ-28" style="edgeStyle=none;rounded=0;orthogonalLoop=1;jettySize=auto;html=1;strokeWidth=1;" parent="1" source="hwQlgyIUElPGhax0S_aQ-16" edge="1">
          <mxGeometry relative="1" as="geometry">
            <mxPoint x="1320.0000000000002" y="220" as="targetPoint" />
          </mxGeometry>
        </mxCell>
        <mxCell id="hwQlgyIUElPGhax0S_aQ-16" value="" style="ellipse;whiteSpace=wrap;html=1;aspect=fixed;" parent="1" vertex="1">
          <mxGeometry x="1200" y="200" width="40" height="40" as="geometry" />
        </mxCell>
        <mxCell id="hwQlgyIUElPGhax0S_aQ-18" value="" style="endArrow=none;html=1;strokeWidth=3;" parent="1" edge="1">
          <mxGeometry width="50" height="50" relative="1" as="geometry">
            <mxPoint x="1320" y="250" as="sourcePoint" />
            <mxPoint x="1320" y="190" as="targetPoint" />
          </mxGeometry>
        </mxCell>
        <mxCell id="hwQlgyIUElPGhax0S_aQ-29" style="edgeStyle=none;rounded=0;orthogonalLoop=1;jettySize=auto;html=1;strokeWidth=1;" parent="1" edge="1">
          <mxGeometry relative="1" as="geometry">
            <mxPoint x="400" y="319.5800000000001" as="targetPoint" />
            <mxPoint x="320" y="319.5800000000001" as="sourcePoint" />
          </mxGeometry>
        </mxCell>
        <mxCell id="hwQlgyIUElPGhax0S_aQ-30" style="edgeStyle=none;rounded=0;orthogonalLoop=1;jettySize=auto;html=1;strokeWidth=1;" parent="1" edge="1">
          <mxGeometry relative="1" as="geometry">
            <mxPoint x="400" y="119.58" as="targetPoint" />
            <mxPoint x="320" y="119.58" as="sourcePoint" />
          </mxGeometry>
        </mxCell>
        <mxCell id="hwQlgyIUElPGhax0S_aQ-31" style="edgeStyle=none;rounded=0;orthogonalLoop=1;jettySize=auto;html=1;strokeWidth=1;" parent="1" target="hwQlgyIUElPGhax0S_aQ-7" edge="1">
          <mxGeometry relative="1" as="geometry">
            <mxPoint x="329.9999999999999" y="330.0000000000001" as="targetPoint" />
            <mxPoint x="520" y="320" as="sourcePoint" />
          </mxGeometry>
        </mxCell>
        <mxCell id="hwQlgyIUElPGhax0S_aQ-32" style="edgeStyle=none;rounded=0;orthogonalLoop=1;jettySize=auto;html=1;strokeWidth=1;" parent="1" target="hwQlgyIUElPGhax0S_aQ-8" edge="1">
          <mxGeometry relative="1" as="geometry">
            <mxPoint x="450.00213562373085" y="275.85786437626916" as="targetPoint" />
            <mxPoint x="520" y="120" as="sourcePoint" />
          </mxGeometry>
        </mxCell>
        <mxCell id="hwQlgyIUElPGhax0S_aQ-33" style="edgeStyle=none;rounded=0;orthogonalLoop=1;jettySize=auto;html=1;strokeWidth=1;" parent="1" edge="1">
          <mxGeometry relative="1" as="geometry">
            <mxPoint x="200" y="220.0000000000001" as="targetPoint" />
            <mxPoint x="120" y="220.0000000000001" as="sourcePoint" />
          </mxGeometry>
        </mxCell>
        <mxCell id="hwQlgyIUElPGhax0S_aQ-34" style="edgeStyle=none;rounded=0;orthogonalLoop=1;jettySize=auto;html=1;strokeWidth=1;" parent="1" target="hwQlgyIUElPGhax0S_aQ-11" edge="1">
          <mxGeometry relative="1" as="geometry">
            <mxPoint x="444.14213562373084" y="435.85786437626916" as="targetPoint" />
            <mxPoint x="520" y="320" as="sourcePoint" />
          </mxGeometry>
        </mxCell>
        <mxCell id="hwQlgyIUElPGhax0S_aQ-35" style="edgeStyle=none;rounded=0;orthogonalLoop=1;jettySize=auto;html=1;strokeWidth=1;" parent="1" target="hwQlgyIUElPGhax0S_aQ-11" edge="1">
          <mxGeometry relative="1" as="geometry">
            <mxPoint x="607.15278901238" y="224.67194826994296" as="targetPoint" />
            <mxPoint x="520" y="120" as="sourcePoint" />
          </mxGeometry>
        </mxCell>
        <mxCell id="hwQlgyIUElPGhax0S_aQ-36" style="edgeStyle=none;rounded=0;orthogonalLoop=1;jettySize=auto;html=1;strokeWidth=1;" parent="1" edge="1">
          <mxGeometry relative="1" as="geometry">
            <mxPoint x="800" y="220" as="targetPoint" />
            <mxPoint x="720" y="220" as="sourcePoint" />
          </mxGeometry>
        </mxCell>
        <mxCell id="hwQlgyIUElPGhax0S_aQ-37" style="edgeStyle=none;rounded=0;orthogonalLoop=1;jettySize=auto;html=1;strokeWidth=1;" parent="1" target="hwQlgyIUElPGhax0S_aQ-14" edge="1">
          <mxGeometry relative="1" as="geometry">
            <mxPoint x="930" y="230" as="targetPoint" />
            <mxPoint x="1120" y="220" as="sourcePoint" />
          </mxGeometry>
        </mxCell>
        <mxCell id="hwQlgyIUElPGhax0S_aQ-38" style="edgeStyle=none;rounded=0;orthogonalLoop=1;jettySize=auto;html=1;strokeWidth=1;" parent="1" edge="1">
          <mxGeometry relative="1" as="geometry">
            <mxPoint x="1000" y="220" as="targetPoint" />
            <mxPoint x="920" y="220" as="sourcePoint" />
          </mxGeometry>
        </mxCell>
        <mxCell id="hwQlgyIUElPGhax0S_aQ-39" style="edgeStyle=none;rounded=0;orthogonalLoop=1;jettySize=auto;html=1;strokeWidth=1;exitX=0.915;exitY=0.251;exitDx=0;exitDy=0;exitPerimeter=0;" parent="1" source="hwQlgyIUElPGhax0S_aQ-16" edge="1">
          <mxGeometry relative="1" as="geometry">
            <mxPoint x="1320.0000000000002" y="210" as="targetPoint" />
            <mxPoint x="1240" y="210" as="sourcePoint" />
          </mxGeometry>
        </mxCell>
        <mxCell id="hwQlgyIUElPGhax0S_aQ-40" style="edgeStyle=none;rounded=0;orthogonalLoop=1;jettySize=auto;html=1;strokeWidth=1;exitX=0.5;exitY=0;exitDx=0;exitDy=0;" parent="1" source="hwQlgyIUElPGhax0S_aQ-16" edge="1">
          <mxGeometry relative="1" as="geometry">
            <mxPoint x="1320.0000000000002" y="200" as="targetPoint" />
            <mxPoint x="1240" y="200" as="sourcePoint" />
          </mxGeometry>
        </mxCell>
        <mxCell id="hwQlgyIUElPGhax0S_aQ-41" style="edgeStyle=none;rounded=0;orthogonalLoop=1;jettySize=auto;html=1;strokeWidth=1;exitX=0.933;exitY=0.751;exitDx=0;exitDy=0;exitPerimeter=0;" parent="1" source="hwQlgyIUElPGhax0S_aQ-16" edge="1">
          <mxGeometry relative="1" as="geometry">
            <mxPoint x="1320.0000000000002" y="230" as="targetPoint" />
            <mxPoint x="1240" y="230" as="sourcePoint" />
          </mxGeometry>
        </mxCell>
        <mxCell id="hwQlgyIUElPGhax0S_aQ-42" style="edgeStyle=none;rounded=0;orthogonalLoop=1;jettySize=auto;html=1;strokeWidth=1;exitX=0.5;exitY=1;exitDx=0;exitDy=0;" parent="1" source="hwQlgyIUElPGhax0S_aQ-16" edge="1">
          <mxGeometry relative="1" as="geometry">
            <mxPoint x="1320.0000000000002" y="240" as="targetPoint" />
            <mxPoint x="1240" y="240" as="sourcePoint" />
          </mxGeometry>
        </mxCell>
        <mxCell id="hwQlgyIUElPGhax0S_aQ-43" value="Llegan pedidos" style="text;html=1;strokeColor=none;fillColor=none;align=center;verticalAlign=middle;whiteSpace=wrap;rounded=0;fontSize=11;" parent="1" vertex="1">
          <mxGeometry x="80" y="240" width="80" height="40" as="geometry" />
        </mxCell>
        <mxCell id="hwQlgyIUElPGhax0S_aQ-44" value="&lt;div align=&quot;left&quot;&gt;Pedidos en línea de montaje&lt;br&gt;&lt;/div&gt;" style="text;html=1;strokeColor=none;fillColor=none;align=center;verticalAlign=middle;whiteSpace=wrap;rounded=0;fontSize=11;" parent="1" vertex="1">
          <mxGeometry x="250" y="200" width="80" height="40" as="geometry" />
        </mxCell>
        <mxCell id="hwQlgyIUElPGhax0S_aQ-45" value="&lt;div&gt;Pedido derivado&lt;/div&gt;&lt;div&gt;al puesto A&lt;br&gt;&lt;/div&gt;" style="text;html=1;strokeColor=none;fillColor=none;align=right;verticalAlign=middle;whiteSpace=wrap;rounded=0;fontSize=11;" parent="1" vertex="1">
          <mxGeometry x="230" y="90" width="80" height="40" as="geometry" />
        </mxCell>
        <mxCell id="hwQlgyIUElPGhax0S_aQ-46" value="&lt;div&gt;Pedido derivado&lt;/div&gt;&lt;div&gt;al puesto B&lt;br&gt;&lt;/div&gt;" style="text;html=1;strokeColor=none;fillColor=none;align=right;verticalAlign=middle;whiteSpace=wrap;rounded=0;fontSize=11;" parent="1" vertex="1">
          <mxGeometry x="230" y="310" width="80" height="40" as="geometry" />
        </mxCell>
        <mxCell id="hwQlgyIUElPGhax0S_aQ-47" value="Puesto A libre" style="text;html=1;strokeColor=none;fillColor=none;align=left;verticalAlign=middle;whiteSpace=wrap;rounded=0;fontSize=11;" parent="1" vertex="1">
          <mxGeometry x="450" y="180" width="80" height="40" as="geometry" />
        </mxCell>
        <mxCell id="hwQlgyIUElPGhax0S_aQ-49" value="Puesto B libre" style="text;html=1;strokeColor=none;fillColor=none;align=left;verticalAlign=middle;whiteSpace=wrap;rounded=0;fontSize=11;" parent="1" vertex="1">
          <mxGeometry x="450" y="380" width="80" height="40" as="geometry" />
        </mxCell>
        <mxCell id="hwQlgyIUElPGhax0S_aQ-50" value="&lt;div&gt;Analizando pedido&lt;/div&gt;&lt;div&gt;en puesto B&lt;/div&gt;" style="text;html=1;strokeColor=none;fillColor=none;align=center;verticalAlign=middle;whiteSpace=wrap;rounded=0;fontSize=11;" parent="1" vertex="1">
          <mxGeometry x="360" y="260" width="120" height="40" as="geometry" />
        </mxCell>
        <mxCell id="hwQlgyIUElPGhax0S_aQ-51" value="&lt;div&gt;Analizando pedido&lt;/div&gt;&lt;div&gt;en puesto A&lt;br&gt;&lt;/div&gt;" style="text;html=1;strokeColor=none;fillColor=none;align=center;verticalAlign=middle;whiteSpace=wrap;rounded=0;fontSize=11;" parent="1" vertex="1">
          <mxGeometry x="360" y="60" width="120" height="40" as="geometry" />
        </mxCell>
        <mxCell id="hwQlgyIUElPGhax0S_aQ-53" value="&lt;div&gt;Pedido de puesto B&lt;/div&gt;enviado a ensamblado" style="text;html=1;strokeColor=none;fillColor=none;align=left;verticalAlign=middle;whiteSpace=wrap;rounded=0;fontSize=11;" parent="1" vertex="1">
          <mxGeometry x="530" y="310" width="120" height="40" as="geometry" />
        </mxCell>
        <mxCell id="hwQlgyIUElPGhax0S_aQ-55" value="&lt;div&gt;Pedidos esperando&lt;/div&gt;&lt;div&gt;ser ensamblados&lt;br&gt;&lt;/div&gt;" style="text;html=1;strokeColor=none;fillColor=none;align=left;verticalAlign=middle;whiteSpace=wrap;rounded=0;fontSize=11;" parent="1" vertex="1">
          <mxGeometry x="600" y="240" width="120" height="40" as="geometry" />
        </mxCell>
        <mxCell id="hwQlgyIUElPGhax0S_aQ-56" value="&lt;div&gt;Pedido pasa&lt;/div&gt;&lt;div&gt;a ser ensamblado&lt;br&gt;&lt;/div&gt;" style="text;html=1;strokeColor=none;fillColor=none;align=center;verticalAlign=middle;whiteSpace=wrap;rounded=0;fontSize=11;" parent="1" vertex="1">
          <mxGeometry x="660" y="160" width="120" height="40" as="geometry" />
        </mxCell>
        <mxCell id="hwQlgyIUElPGhax0S_aQ-57" value="Ensamblador libre" style="text;html=1;strokeColor=none;fillColor=none;align=center;verticalAlign=middle;whiteSpace=wrap;rounded=0;fontSize=11;" parent="1" vertex="1">
          <mxGeometry x="860" y="330" width="120" height="40" as="geometry" />
        </mxCell>
        <mxCell id="hwQlgyIUElPGhax0S_aQ-58" value="&lt;div&gt;Ensamblando&lt;/div&gt;&lt;div&gt;pedido/s&lt;br&gt;&lt;/div&gt;" style="text;html=1;strokeColor=none;fillColor=none;align=center;verticalAlign=middle;whiteSpace=wrap;rounded=0;fontSize=11;" parent="1" vertex="1">
          <mxGeometry x="760" y="160" width="120" height="40" as="geometry" />
        </mxCell>
        <mxCell id="hwQlgyIUElPGhax0S_aQ-59" value="&lt;div&gt;Pedido pasa&lt;/div&gt;&lt;div&gt;a sector de envíos&lt;br&gt;&lt;/div&gt;" style="text;html=1;strokeColor=none;fillColor=none;align=center;verticalAlign=middle;whiteSpace=wrap;rounded=0;fontSize=11;" parent="1" vertex="1">
          <mxGeometry x="1060" y="160" width="120" height="40" as="geometry" />
        </mxCell>
        <mxCell id="hwQlgyIUElPGhax0S_aQ-60" value="&lt;div&gt;Armando lote&lt;/div&gt;&lt;div&gt;de envío&lt;br&gt;&lt;/div&gt;" style="text;html=1;strokeColor=none;fillColor=none;align=center;verticalAlign=middle;whiteSpace=wrap;rounded=0;fontSize=11;" parent="1" vertex="1">
          <mxGeometry x="1160" y="240" width="120" height="40" as="geometry" />
        </mxCell>
        <mxCell id="hwQlgyIUElPGhax0S_aQ-61" value="Lote armado" style="text;html=1;strokeColor=none;fillColor=none;align=center;verticalAlign=middle;whiteSpace=wrap;rounded=0;fontSize=11;" parent="1" vertex="1">
          <mxGeometry x="1280" y="150" width="80" height="40" as="geometry" />
        </mxCell>
        <mxCell id="hwQlgyIUElPGhax0S_aQ-62" value="&lt;div&gt;Pedido de puesto A&lt;br&gt;&lt;/div&gt;enviado a ensamblado" style="text;html=1;strokeColor=none;fillColor=none;align=left;verticalAlign=middle;whiteSpace=wrap;rounded=0;fontSize=11;" parent="1" vertex="1">
          <mxGeometry x="540" y="100" width="120" height="40" as="geometry" />
        </mxCell>
        <mxCell id="BtQzQzE5J5TL3UL6aQcZ-1" value="" style="ellipse;whiteSpace=wrap;html=1;aspect=fixed;fillColor=#000000;strokeColor=none;" parent="1" vertex="1">
          <mxGeometry x="916.5" y="310" width="7" height="7" as="geometry" />
        </mxCell>
        <mxCell id="BtQzQzE5J5TL3UL6aQcZ-2" value="" style="ellipse;whiteSpace=wrap;html=1;aspect=fixed;fillColor=#000000;strokeColor=none;" parent="1" vertex="1">
          <mxGeometry x="909.5" y="326.5" width="7" height="7" as="geometry" />
        </mxCell>
        <mxCell id="BtQzQzE5J5TL3UL6aQcZ-3" value="" style="ellipse;whiteSpace=wrap;html=1;aspect=fixed;fillColor=#000000;strokeColor=none;" parent="1" vertex="1">
          <mxGeometry x="923.5" y="323" width="7" height="7" as="geometry" />
        </mxCell>
        <mxCell id="BtQzQzE5J5TL3UL6aQcZ-5" value="" style="ellipse;whiteSpace=wrap;html=1;aspect=fixed;fillColor=#000000;strokeColor=none;" parent="1" vertex="1">
          <mxGeometry x="420" y="396.5" width="7" height="7" as="geometry" />
        </mxCell>
        <mxCell id="BtQzQzE5J5TL3UL6aQcZ-6" value="" style="ellipse;whiteSpace=wrap;html=1;aspect=fixed;fillColor=#000000;strokeColor=none;" parent="1" vertex="1">
          <mxGeometry x="420" y="196.5" width="7" height="7" as="geometry" />
        </mxCell>
        <mxCell id="ePsIawldVn9w3vDJ7131-2" style="edgeStyle=none;rounded=0;orthogonalLoop=1;jettySize=auto;html=1;strokeWidth=1;" edge="1" parent="1">
          <mxGeometry relative="1" as="geometry">
            <mxPoint x="1400" y="219.9999999999999" as="targetPoint" />
            <mxPoint x="1320" y="219.9999999999999" as="sourcePoint" />
          </mxGeometry>
        </mxCell>
        <mxCell id="ePsIawldVn9w3vDJ7131-3" value="&lt;div&gt;Se carga lote&lt;/div&gt;&lt;div&gt;en el camión&lt;/div&gt;" style="text;html=1;strokeColor=none;fillColor=none;align=left;verticalAlign=middle;whiteSpace=wrap;rounded=0;fontSize=11;" vertex="1" parent="1">
          <mxGeometry x="1530" y="200" width="70" height="40" as="geometry" />
        </mxCell>
        <mxCell id="ePsIawldVn9w3vDJ7131-4" style="edgeStyle=none;rounded=0;orthogonalLoop=1;jettySize=auto;html=1;strokeWidth=1;" edge="1" source="ePsIawldVn9w3vDJ7131-5" parent="1">
          <mxGeometry relative="1" as="geometry">
            <mxPoint x="1520.0000000000005" y="219.9999999999999" as="targetPoint" />
          </mxGeometry>
        </mxCell>
        <mxCell id="ePsIawldVn9w3vDJ7131-5" value="" style="ellipse;whiteSpace=wrap;html=1;aspect=fixed;" vertex="1" parent="1">
          <mxGeometry x="1400" y="200" width="40" height="40" as="geometry" />
        </mxCell>
        <mxCell id="ePsIawldVn9w3vDJ7131-6" value="" style="endArrow=none;html=1;strokeWidth=3;" edge="1" parent="1">
          <mxGeometry width="50" height="50" relative="1" as="geometry">
            <mxPoint x="1520" y="239.9999999999999" as="sourcePoint" />
            <mxPoint x="1520" y="199.9999999999999" as="targetPoint" />
          </mxGeometry>
        </mxCell>
        <mxCell id="ePsIawldVn9w3vDJ7131-7" value="&lt;div&gt;Lote esperando para&lt;/div&gt;&lt;div&gt;cargar en el camión&lt;br&gt;&lt;/div&gt;" style="text;html=1;strokeColor=none;fillColor=none;align=center;verticalAlign=middle;whiteSpace=wrap;rounded=0;fontSize=11;" vertex="1" parent="1">
          <mxGeometry x="1360" y="240" width="120" height="40" as="geometry" />
        </mxCell>
        <mxCell id="ePsIawldVn9w3vDJ7131-8" value="" style="ellipse;whiteSpace=wrap;html=1;aspect=fixed;" vertex="1" parent="1">
          <mxGeometry x="1000" y="200" width="40" height="40" as="geometry" />
        </mxCell>
        <mxCell id="ePsIawldVn9w3vDJ7131-9" value="" style="endArrow=none;html=1;strokeWidth=3;" edge="1" parent="1">
          <mxGeometry width="50" height="50" relative="1" as="geometry">
            <mxPoint x="1120" y="240" as="sourcePoint" />
            <mxPoint x="1120" y="200" as="targetPoint" />
          </mxGeometry>
        </mxCell>
        <mxCell id="ePsIawldVn9w3vDJ7131-10" style="edgeStyle=none;rounded=0;orthogonalLoop=1;jettySize=auto;html=1;strokeWidth=1;" edge="1" parent="1">
          <mxGeometry relative="1" as="geometry">
            <mxPoint x="1120" y="220" as="targetPoint" />
            <mxPoint x="1040" y="220" as="sourcePoint" />
          </mxGeometry>
        </mxCell>
        <mxCell id="ePsIawldVn9w3vDJ7131-11" style="edgeStyle=none;rounded=0;orthogonalLoop=1;jettySize=auto;html=1;strokeWidth=1;" edge="1" parent="1">
          <mxGeometry relative="1" as="geometry">
            <mxPoint x="1200" y="219.71" as="targetPoint" />
            <mxPoint x="1120" y="219.71" as="sourcePoint" />
          </mxGeometry>
        </mxCell>
        <mxCell id="ePsIawldVn9w3vDJ7131-12" value="&lt;div&gt;Embalando&lt;/div&gt;&lt;div&gt;pedido/s&lt;br&gt;&lt;/div&gt;" style="text;html=1;strokeColor=none;fillColor=none;align=center;verticalAlign=middle;whiteSpace=wrap;rounded=0;fontSize=11;" vertex="1" parent="1">
          <mxGeometry x="960" y="160" width="120" height="40" as="geometry" />
        </mxCell>
        <mxCell id="ePsIawldVn9w3vDJ7131-13" value="&lt;div&gt;Pedido ensamblado&lt;br&gt;&lt;/div&gt;" style="text;html=1;strokeColor=none;fillColor=none;align=center;verticalAlign=middle;whiteSpace=wrap;rounded=0;fontSize=11;" vertex="1" parent="1">
          <mxGeometry x="860" y="160" width="120" height="40" as="geometry" />
        </mxCell>
      </root>
    </mxGraphModel>
  </diagram>
</mxfile>
